<svg xmlns="http://www.w3.org/2000/svg" xmlns:xlink="http://www.w3.org/1999/xlink" viewBox="0 0 48 48" version="1.1" width="48px" height="48px">
<g id="surface1">
<path style=" fill:#FFB74D;" d="M 37 12.5 C 37 14.433594 35.433594 16 33.5 16 C 31.566406 16 30 14.433594 30 12.5 C 30 10.566406 31.566406 9 33.5 9 C 35.433594 9 37 10.566406 37 12.5 Z "/>
<path style=" fill:#546E7A;" d="M 33.601563 31.101563 L 29.300781 27.898438 L 30 34.699219 L 27.300781 40.800781 C 26.800781 41.898438 27.601563 43.101563 28.800781 43.101563 C 29.398438 43.101563 30 42.699219 30.300781 42.199219 L 33.300781 35.800781 Z "/>
<path style=" fill:#607D8B;" d="M 40.300781 40.800781 L 37.300781 34 L 34.300781 29 L 35.300781 19.898438 C 35.5 18.601563 34.898438 17.5 33.601563 17.199219 L 32.601563 17 C 31.699219 16.800781 30.300781 17.398438 30.199219 19 L 29.300781 27 C 29.199219 28 29.398438 29 29.800781 29.800781 L 34.101563 35.5 L 37.398438 42.199219 C 37.699219 42.699219 38.199219 43.101563 38.800781 43.101563 C 40 43 40.699219 41.800781 40.300781 40.800781 Z "/>
<path style=" fill:#455A64;" d="M 34.898438 22.199219 L 34.300781 29.101563 C 33.898438 28.800781 32.398438 20.398438 32.398438 20.398438 Z "/>
<path style=" fill:#607D8B;" d="M 40 27.699219 L 37.199219 24.601563 L 35.199219 18.601563 C 34.800781 17.898438 34 17.699219 33.300781 17.898438 C 32.398438 18.300781 32 19.398438 32.601563 20.199219 L 35.101563 26.199219 L 38.101563 29.398438 C 38.601563 29.898438 39.5 30 40 29.398438 C 40.5 29 40.5 28.199219 40 27.699219 Z "/>
<path style=" fill:#4DB6AC;" d="M 25.898438 18.601563 L 24.398438 25.101563 C 24.101563 26.398438 25 27.699219 26.300781 27.898438 L 29.5 28.300781 L 30.800781 18.300781 C 30.898438 17.699219 30.5 17.199219 29.898438 17.199219 L 27.898438 17 C 26.898438 16.898438 26.101563 17.601563 25.898438 18.601563 Z "/>
<path style=" fill:#FFB74D;" d="M 20 9 C 20 11.210938 18.210938 13 16 13 C 13.789063 13 12 11.210938 12 9 C 12 6.789063 13.789063 5 16 5 C 18.210938 5 20 6.789063 20 9 Z "/>
<path style=" fill:#546E7A;" d="M 15.898438 29.800781 L 11.101563 26.199219 L 11.800781 33.699219 L 8.800781 40.5 C 8.300781 41.601563 9.199219 43 10.5 43 C 11.199219 43 11.800781 42.601563 12.101563 42 L 15.398438 34.898438 Z "/>
<path style=" fill:#607D8B;" d="M 23.300781 40.5 L 20 33 L 16.601563 27.5 L 17.800781 17.300781 C 18 15.898438 17.300781 14.601563 15.898438 14.300781 L 14.800781 14.101563 C 13.800781 13.898438 12.300781 14.5 12.101563 16.300781 L 11.101563 25.199219 C 11 26.398438 11.199219 27.398438 11.699219 28.300781 L 16.5 34.601563 L 20.199219 42 C 20.5 42.601563 21.101563 43 21.800781 43 C 22.898438 43 23.800781 41.699219 23.300781 40.5 Z "/>
<path style=" fill:#455A64;" d="M 17.300781 19.898438 L 16.601563 27.5 C 16.101563 27.199219 14.5 17.800781 14.5 17.800781 Z "/>
<path style=" fill:#607D8B;" d="M 23 26 L 19.898438 22.5 L 17.699219 15.898438 C 17.300781 15.199219 16.398438 14.898438 15.601563 15.199219 C 14.601563 15.601563 14.199219 16.800781 14.800781 17.699219 L 17.601563 24.398438 L 20.898438 28 C 21.5 28.601563 22.398438 28.601563 23 28 C 23.5 27.398438 23.5 26.601563 23 26 Z "/>
<path style=" fill:#8BC34A;" d="M 7.601563 15.800781 L 5.800781 24.199219 C 5.601563 25.300781 6.300781 26.5 7.5 26.601563 L 11.101563 27 L 12.601563 15.5 C 12.699219 14.898438 12.199219 14.398438 11.699219 14.398438 L 9.699219 14.300781 C 8.699219 14.101563 7.800781 14.800781 7.601563 15.800781 Z "/>
</g>
</svg>